# xmcd
#
# Track frame offsets:
#	150
#	21297
#	40560
#	64167
#	78660
#	96037
#	116697
#	140225
#	156337
#	178455
#	195332
#	214725
#	235147
#	251620
#	272305
#	291325
#
# Disc length: 4229 seconds
#
# Revision: 1
# Processed by: cddbd v1.5.1PL0 Copyright (c) Steve Scherf et al.
# Submitted via: CDex 1.50Beta5
#
DISCID=ea108310
DTITLE=杉良太郎 - 杉良太郎2001年全曲集
DYEAR=2000
DGENRE=Pop
TTITLE0=風暦
TTITLE1=吉野に風が
TTITLE2=善し悪しの彼岸
TTITLE3=すきま風
TTITLE4=北からの手紙
TTITLE5=旅路
TTITLE6=お袋の涙
TTITLE7=明日の詩
TTITLE8=瞼の母
TTITLE9=男の人生
TTITLE10=おれの道
TTITLE11=ぼけたらあかん 長生きしなはれ
TTITLE12=おまえとおれ
TTITLE13=小さな倖せ
TTITLE14=風が吹くまま
TTITLE15=街角に佇めば
EXTD=
EXTT0=
EXTT1=
EXTT2=
EXTT3=
EXTT4=
EXTT5=
EXTT6=
EXTT7=
EXTT8=
EXTT9=
EXTT10=
EXTT11=
EXTT12=
EXTT13=
EXTT14=
EXTT15=
PLAYORDER=
